<?xml version="1.0" standalone="no"?><!DOCTYPE svg PUBLIC "-//W3C//DTD SVG 1.1//EN" "http://www.w3.org/Graphics/SVG/1.1/DTD/svg11.dtd"><svg t="1651916537001" class="icon" viewBox="0 0 1024 1024" version="1.1" xmlns="http://www.w3.org/2000/svg" p-id="2644" data-spm-anchor-id="a313x.7781069.0.i11" xmlns:xlink="http://www.w3.org/1999/xlink" width="16" height="16"><defs><style type="text/css"></style></defs><path d="M192 85.333333a106.666667 106.666667 0 0 0-106.666667 106.666667v640a106.666667 106.666667 0 0 0 106.666667 106.666667h640a106.666667 106.666667 0 0 0 106.666667-106.666667V512a53.333333 53.333333 0 0 0-106.666667 0v240A80 80 0 0 1 752 832h-480A80 80 0 0 1 192 752v-480A80 80 0 0 1 272 192H512a53.333333 53.333333 0 0 0 0-106.666667H192z" fill="#96ca86" p-id="2645" data-spm-anchor-id="a313x.7781069.0.i7" class=""></path><path d="M924.8 98.922667c20.842667 20.821333 17.322667 58.112-7.829333 83.264L555.52 543.637333c-25.173333 25.173333-62.442667 28.650667-83.264 7.829334s-17.322667-58.090667 7.829333-83.242667L841.536 106.752c25.173333-25.152 62.442667-28.650667 83.264-7.829333z" fill="#69b452" p-id="2646" data-spm-anchor-id="a313x.7781069.0.i10" class=""></path></svg>