<?xml version="1.0" standalone="no"?><!DOCTYPE svg PUBLIC "-//W3C//DTD SVG 1.1//EN" "http://www.w3.org/Graphics/SVG/1.1/DTD/svg11.dtd"><svg t="1651914419114" class="icon" viewBox="0 0 1024 1024" version="1.1" xmlns="http://www.w3.org/2000/svg" p-id="1937" data-spm-anchor-id="a313x.7781069.0.i5" xmlns:xlink="http://www.w3.org/1999/xlink" width="16" height="16"><defs><style type="text/css"></style></defs><path d="M89.6 230.4h844.8a46.933333 46.933333 0 0 1 0 93.866667H89.6a46.933333 46.933333 0 0 1 0-93.866667zM465.066667 42.666667h93.866666a46.933333 46.933333 0 0 1 46.933334 46.933333v46.933333a46.933333 46.933333 0 0 1-46.933334 46.933334h-93.866666a46.933333 46.933333 0 0 1-46.933334-46.933334V89.6A46.933333 46.933333 0 0 1 465.066667 42.666667zM394.666667 418.133333a23.466667 23.466667 0 0 1 23.466666 23.466667v328.533333a23.466667 23.466667 0 0 1-46.933333 0V441.6a23.466667 23.466667 0 0 1 23.466667-23.466667zM629.333333 418.133333a23.466667 23.466667 0 0 1 23.466667 23.466667v328.533333a23.466667 23.466667 0 0 1-46.933333 0V441.6a23.466667 23.466667 0 0 1 23.466666-23.466667z" fill="#69b452" p-id="1938" data-spm-anchor-id="a313x.7781069.0.i0" class=""></path><path d="M183.466667 371.2a46.933333 46.933333 0 0 0-46.933334 46.933333v518.464c0 24.96 20.48 44.736 45.461334 44.736H842.026667c24.96 0 45.461333-19.754667 45.461333-44.736V418.133333a46.933333 46.933333 0 0 0-93.866667 0V856.661333c0 17.28-14.997333 30.805333-33.728 30.805334H264.106667c-18.730667 0-33.728-13.504-33.728-30.805334V418.133333a46.933333 46.933333 0 0 0-46.933334-46.933333z" fill="#96ca86" p-id="1939" data-spm-anchor-id="a313x.7781069.0.i3" class=""></path></svg>